<?xml version="1.0" encoding="utf-8"?>
<!-- Generator: Adobe Illustrator 22.1.0, SVG Export Plug-In . SVG Version: 6.00 Build 0)  -->
<svg version="1.1" xmlns="http://www.w3.org/2000/svg" xmlns:xlink="http://www.w3.org/1999/xlink" x="0px" y="0px"
	 viewBox="0 0 228.5 227.6" style="enable-background:new 0 0 228.5 227.6;" xml:space="preserve">
<style type="text/css">
	.st0{fill:#FF8500;}
	.st1{fill:#0072C1;}
	.st2{display:none;}
	.st3{display:inline;}
	.st4{fill:#FFFFFF;}
	.st5{fill:#999999;}
</style>
<g id="Primary">
	<g>
		<g>
			<path class="st0" d="M134.3,46.7h-26c-2.5-7.2-8.2-13.2-16-15.5c-12.9-3.9-26.5,3.4-30.5,16.2c-1.9,6.2-1.3,12.8,1.8,18.6
				c3.1,5.8,8.2,10,14.4,11.9c2.4,0.7,4.8,1.1,7.2,1.1c4,0,7.9-1,11.5-2.9c5.5-3,9.6-7.8,11.5-13.7h26c10.9,0,20,8.9,20.2,19.8
				c0.1,5.3-2,10.3-5.8,14.2c-4,4.1-9.5,6.4-15.2,6.4h-31.8c-13.5,0-24.4,10.9-24.4,24.4v52.9c-7.2,2.5-13.1,8.2-15.5,15.9
				c-3.9,12.9,3.4,26.6,16.2,30.5c2.4,0.7,4.8,1.1,7.2,1.1c4,0,7.9-1,11.5-2.9c5.7-3.1,9.9-8.2,11.8-14.4c3.8-12.7-3.2-26-15.5-30.2
				v-52.8c0-4.8,3.9-8.7,8.7-8.7h31.8c9.8,0,19.4-4,26.3-11.1c6.8-6.9,10.4-16,10.3-25.5C169.8,62.5,153.7,46.7,134.3,46.7z
				 M93.5,57.2c-0.7,2.2-2.1,4-4.2,5.1c-2.1,1.1-4.5,1.4-6.7,0.7c-2.2-0.7-4.1-2.2-5.2-4.3c-1.1-2.1-1.3-4.4-0.6-6.7
				c1.1-3.8,4.6-6.2,8.4-6.2c0.8,0,1.7,0.1,2.5,0.4C92.4,47.6,94.9,52.4,93.5,57.2z M93.5,205.8c-0.7,2.2-2.1,4-4.2,5.1
				c-2.1,1.1-4.5,1.4-6.7,0.7c-4.6-1.4-7.2-6.3-5.8-10.9c1.1-3.8,4.6-6.2,8.4-6.2c0.8,0,1.7,0.1,2.5,0.4
				C92.4,196.2,94.9,201,93.5,205.8z"/>
			<path class="st1" d="M211.2,179.8c-6.2-1.9-12.6-1.1-18,1.6l-17.7-17.7c-1.8-1.8-2.6-4.2-2.4-6.7c0.1-1.4,0.8-4,3.4-5.7
				c23-15.2,36.9-40.8,37-68.3c0.1-21.7-8.4-42.2-24-57.9C173.8,9.1,152,0,129.9,0H57.7C35,0,16.6,18.4,16.6,41.1v139
				c-7.2,2.5-13.1,8.2-15.5,15.9c-3.9,12.9,3.4,26.6,16.2,30.5c2.4,0.7,4.8,1.1,7.2,1.1c4,0,7.9-1,11.5-2.9
				c5.7-3.1,9.9-8.2,11.8-14.4c3.8-12.7-3.2-26-15.5-30.2v-139c0-14,11.4-25.4,25.4-25.4h72.2c18,0,35.7,7.4,48.6,20.4
				c12.6,12.7,19.6,29.3,19.5,46.8c-0.1,22.3-11.3,43-30,55.4c-5.9,3.9-9.6,10.1-10.3,17.2c-0.7,7.2,1.8,14.2,6.9,19.4l17.7,17.7
				c-0.6,1.1-1.1,2.3-1.4,3.6c-3.9,12.9,3.4,26.6,16.2,30.5c2.4,0.7,4.8,1.1,7.2,1.1c4,0,7.9-1,11.5-2.9c5.7-3.1,9.9-8.2,11.8-14.4
				C231.3,197.3,224,183.7,211.2,179.8z M32.8,205.8c-0.7,2.2-2.1,4-4.2,5.1c-2.1,1.1-4.5,1.4-6.7,0.7c-4.6-1.4-7.2-6.3-5.8-10.9
				c1.1-3.5,4.2-5.9,7.7-6.1c0.2,0,0.4,0.1,0.6,0.1c0.2,0,0.5,0,0.7-0.1c0.6,0,1.3,0.1,1.9,0.3C31.7,196.2,34.2,201,32.8,205.8z
				 M212.4,205.8c-0.7,2.2-2.1,4-4.2,5.1c-2.1,1.1-4.5,1.4-6.7,0.7c-4.6-1.4-7.2-6.3-5.8-10.9c1.1-3.8,4.6-6.2,8.4-6.2
				c0.8,0,1.7,0.1,2.5,0.4C211.3,196.2,213.8,201,212.4,205.8z"/>
		</g>
	</g>
</g>
<g id="White" class="st2">
	<g class="st3">
		<g>
			<path class="st4" d="M134.3,46.7h-26c-2.5-7.2-8.2-13.2-16-15.5c-12.9-3.9-26.5,3.4-30.5,16.2c-1.9,6.2-1.3,12.8,1.8,18.6
				c3.1,5.8,8.2,10,14.4,11.9c2.4,0.7,4.8,1.1,7.2,1.1c4,0,7.9-1,11.5-2.9c5.5-3,9.6-7.8,11.5-13.7h26c10.9,0,20,8.9,20.2,19.8
				c0.1,5.3-2,10.3-5.8,14.2c-4,4.1-9.5,6.4-15.2,6.4h-31.8c-13.5,0-24.4,10.9-24.4,24.4v52.9c-7.2,2.5-13.1,8.2-15.5,15.9
				c-3.9,12.9,3.4,26.6,16.2,30.5c2.4,0.7,4.8,1.1,7.2,1.1c4,0,7.9-1,11.5-2.9c5.7-3.1,9.9-8.2,11.8-14.4c3.8-12.7-3.2-26-15.5-30.2
				v-52.8c0-4.8,3.9-8.7,8.7-8.7h31.8c9.8,0,19.4-4,26.3-11.1c6.8-6.9,10.4-16,10.3-25.5C169.8,62.5,153.7,46.7,134.3,46.7z
				 M93.5,57.2c-0.7,2.2-2.1,4-4.2,5.1c-2.1,1.1-4.5,1.4-6.7,0.7c-2.2-0.7-4.1-2.2-5.2-4.3c-1.1-2.1-1.3-4.4-0.6-6.7
				c1.1-3.8,4.6-6.2,8.4-6.2c0.8,0,1.7,0.1,2.5,0.4C92.4,47.6,94.9,52.4,93.5,57.2z M93.5,205.8c-0.7,2.2-2.1,4-4.2,5.1
				c-2.1,1.1-4.5,1.4-6.7,0.7c-4.6-1.4-7.2-6.3-5.8-10.9c1.1-3.8,4.6-6.2,8.4-6.2c0.8,0,1.7,0.1,2.5,0.4
				C92.4,196.2,94.9,201,93.5,205.8z"/>
			<path class="st4" d="M211.2,179.8c-6.2-1.9-12.6-1.1-18,1.6l-17.7-17.7c-1.8-1.8-2.6-4.2-2.4-6.7c0.1-1.4,0.8-4,3.4-5.7
				c23-15.2,36.9-40.8,37-68.3c0.1-21.7-8.4-42.2-24-57.9C173.8,9.1,152,0,129.9,0H57.7C35,0,16.6,18.4,16.6,41.1v139
				c-7.2,2.5-13.1,8.2-15.5,15.9c-3.9,12.9,3.4,26.6,16.2,30.5c2.4,0.7,4.8,1.1,7.2,1.1c4,0,7.9-1,11.5-2.9
				c5.7-3.1,9.9-8.2,11.8-14.4c3.8-12.7-3.2-26-15.5-30.2v-139c0-14,11.4-25.4,25.4-25.4h72.2c18,0,35.7,7.4,48.6,20.4
				c12.6,12.7,19.6,29.3,19.5,46.8c-0.1,22.3-11.3,43-30,55.4c-5.9,3.9-9.6,10.1-10.3,17.2c-0.7,7.2,1.8,14.2,6.9,19.4l17.7,17.7
				c-0.6,1.1-1.1,2.3-1.4,3.6c-3.9,12.9,3.4,26.6,16.2,30.5c2.4,0.7,4.8,1.1,7.2,1.1c4,0,7.9-1,11.5-2.9c5.7-3.1,9.9-8.2,11.8-14.4
				C231.3,197.3,224,183.7,211.2,179.8z M32.8,205.8c-0.7,2.2-2.1,4-4.2,5.1c-2.1,1.1-4.5,1.4-6.7,0.7c-4.6-1.4-7.2-6.3-5.8-10.9
				c1.1-3.5,4.2-5.9,7.7-6.1c0.2,0,0.4,0.1,0.6,0.1c0.2,0,0.5,0,0.7-0.1c0.6,0,1.3,0.1,1.9,0.3C31.7,196.2,34.2,201,32.8,205.8z
				 M212.4,205.8c-0.7,2.2-2.1,4-4.2,5.1c-2.1,1.1-4.5,1.4-6.7,0.7c-4.6-1.4-7.2-6.3-5.8-10.9c1.1-3.8,4.6-6.2,8.4-6.2
				c0.8,0,1.7,0.1,2.5,0.4C211.3,196.2,213.8,201,212.4,205.8z"/>
		</g>
	</g>
</g>
<g id="Black" class="st2">
	<g class="st3">
		<g>
			<path d="M134.3,46.7h-26c-2.5-7.2-8.2-13.2-16-15.5c-12.9-3.9-26.5,3.4-30.5,16.2c-1.9,6.2-1.3,12.8,1.8,18.6
				c3.1,5.8,8.2,10,14.4,11.9c2.4,0.7,4.8,1.1,7.2,1.1c4,0,7.9-1,11.5-2.9c5.5-3,9.6-7.8,11.5-13.7h26c10.9,0,20,8.9,20.2,19.8
				c0.1,5.3-2,10.3-5.8,14.2c-4,4.1-9.5,6.4-15.2,6.4h-31.8c-13.5,0-24.4,10.9-24.4,24.4v52.9c-7.2,2.5-13.1,8.2-15.5,15.9
				c-3.9,12.9,3.4,26.6,16.2,30.5c2.4,0.7,4.8,1.1,7.2,1.1c4,0,7.9-1,11.5-2.9c5.7-3.1,9.9-8.2,11.8-14.4c3.8-12.7-3.2-26-15.5-30.2
				v-52.8c0-4.8,3.9-8.7,8.7-8.7h31.8c9.8,0,19.4-4,26.3-11.1c6.8-6.9,10.4-16,10.3-25.5C169.8,62.5,153.7,46.7,134.3,46.7z
				 M93.5,57.2c-0.7,2.2-2.1,4-4.2,5.1c-2.1,1.1-4.5,1.4-6.7,0.7c-2.2-0.7-4.1-2.2-5.2-4.3c-1.1-2.1-1.3-4.4-0.6-6.7
				c1.1-3.8,4.6-6.2,8.4-6.2c0.8,0,1.7,0.1,2.5,0.4C92.4,47.6,94.9,52.4,93.5,57.2z M93.5,205.8c-0.7,2.2-2.1,4-4.2,5.1
				c-2.1,1.1-4.5,1.4-6.7,0.7c-4.6-1.4-7.2-6.3-5.8-10.9c1.1-3.8,4.6-6.2,8.4-6.2c0.8,0,1.7,0.1,2.5,0.4
				C92.4,196.2,94.9,201,93.5,205.8z"/>
			<path d="M211.2,179.8c-6.2-1.9-12.6-1.1-18,1.6l-17.7-17.7c-1.8-1.8-2.6-4.2-2.4-6.7c0.1-1.4,0.8-4,3.4-5.7
				c23-15.2,36.9-40.8,37-68.3c0.1-21.7-8.4-42.2-24-57.9C173.8,9.1,152,0,129.9,0H57.7C35,0,16.6,18.4,16.6,41.1v139
				c-7.2,2.5-13.1,8.2-15.5,15.9c-3.9,12.9,3.4,26.6,16.2,30.5c2.4,0.7,4.8,1.1,7.2,1.1c4,0,7.9-1,11.5-2.9
				c5.7-3.1,9.9-8.2,11.8-14.4c3.8-12.7-3.2-26-15.5-30.2v-139c0-14,11.4-25.4,25.4-25.4h72.2c18,0,35.7,7.4,48.6,20.4
				c12.6,12.7,19.6,29.3,19.5,46.8c-0.1,22.3-11.3,43-30,55.4c-5.9,3.9-9.6,10.1-10.3,17.2c-0.7,7.2,1.8,14.2,6.9,19.4l17.7,17.7
				c-0.6,1.1-1.1,2.3-1.4,3.6c-3.9,12.9,3.4,26.6,16.2,30.5c2.4,0.7,4.8,1.1,7.2,1.1c4,0,7.9-1,11.5-2.9c5.7-3.1,9.9-8.2,11.8-14.4
				C231.3,197.3,224,183.7,211.2,179.8z M32.8,205.8c-0.7,2.2-2.1,4-4.2,5.1c-2.1,1.1-4.5,1.4-6.7,0.7c-4.6-1.4-7.2-6.3-5.8-10.9
				c1.1-3.5,4.2-5.9,7.7-6.1c0.2,0,0.4,0.1,0.6,0.1c0.2,0,0.5,0,0.7-0.1c0.6,0,1.3,0.1,1.9,0.3C31.7,196.2,34.2,201,32.8,205.8z
				 M212.4,205.8c-0.7,2.2-2.1,4-4.2,5.1c-2.1,1.1-4.5,1.4-6.7,0.7c-4.6-1.4-7.2-6.3-5.8-10.9c1.1-3.8,4.6-6.2,8.4-6.2
				c0.8,0,1.7,0.1,2.5,0.4C211.3,196.2,213.8,201,212.4,205.8z"/>
		</g>
	</g>
</g>
<g id="Greyscale" class="st2">
	<g class="st3">
		<g>
			<path class="st5" d="M134.3,46.7h-26c-2.5-7.2-8.2-13.2-16-15.5c-12.9-3.9-26.5,3.4-30.5,16.2c-1.9,6.2-1.3,12.8,1.8,18.6
				c3.1,5.8,8.2,10,14.4,11.9c2.4,0.7,4.8,1.1,7.2,1.1c4,0,7.9-1,11.5-2.9c5.5-3,9.6-7.8,11.5-13.7h26c10.9,0,20,8.9,20.2,19.8
				c0.1,5.3-2,10.3-5.8,14.2c-4,4.1-9.5,6.4-15.2,6.4h-31.8c-13.5,0-24.4,10.9-24.4,24.4v52.9c-7.2,2.5-13.1,8.2-15.5,15.9
				c-3.9,12.9,3.4,26.6,16.2,30.5c2.4,0.7,4.8,1.1,7.2,1.1c4,0,7.9-1,11.5-2.9c5.7-3.1,9.9-8.2,11.8-14.4c3.8-12.7-3.2-26-15.5-30.2
				v-52.8c0-4.8,3.9-8.7,8.7-8.7h31.8c9.8,0,19.4-4,26.3-11.1c6.8-6.9,10.4-16,10.3-25.5C169.8,62.5,153.7,46.7,134.3,46.7z
				 M93.5,57.2c-0.7,2.2-2.1,4-4.2,5.1c-2.1,1.1-4.5,1.4-6.7,0.7c-2.2-0.7-4.1-2.2-5.2-4.3c-1.1-2.1-1.3-4.4-0.6-6.7
				c1.1-3.8,4.6-6.2,8.4-6.2c0.8,0,1.7,0.1,2.5,0.4C92.4,47.6,94.9,52.4,93.5,57.2z M93.5,205.8c-0.7,2.2-2.1,4-4.2,5.1
				c-2.1,1.1-4.5,1.4-6.7,0.7c-4.6-1.4-7.2-6.3-5.8-10.9c1.1-3.8,4.6-6.2,8.4-6.2c0.8,0,1.7,0.1,2.5,0.4
				C92.4,196.2,94.9,201,93.5,205.8z"/>
			<path d="M211.2,179.8c-6.2-1.9-12.6-1.1-18,1.6l-17.7-17.7c-1.8-1.8-2.6-4.2-2.4-6.7c0.1-1.4,0.8-4,3.4-5.7
				c23-15.2,36.9-40.8,37-68.3c0.1-21.7-8.4-42.2-24-57.9C173.8,9.1,152,0,129.9,0H57.7C35,0,16.6,18.4,16.6,41.1v139
				c-7.2,2.5-13.1,8.2-15.5,15.9c-3.9,12.9,3.4,26.6,16.2,30.5c2.4,0.7,4.8,1.1,7.2,1.1c4,0,7.9-1,11.5-2.9
				c5.7-3.1,9.9-8.2,11.8-14.4c3.8-12.7-3.2-26-15.5-30.2v-139c0-14,11.4-25.4,25.4-25.4h72.2c18,0,35.7,7.4,48.6,20.4
				c12.6,12.7,19.6,29.3,19.5,46.8c-0.1,22.3-11.3,43-30,55.4c-5.9,3.9-9.6,10.1-10.3,17.2c-0.7,7.2,1.8,14.2,6.9,19.4l17.7,17.7
				c-0.6,1.1-1.1,2.3-1.4,3.6c-3.9,12.9,3.4,26.6,16.2,30.5c2.4,0.7,4.8,1.1,7.2,1.1c4,0,7.9-1,11.5-2.9c5.7-3.1,9.9-8.2,11.8-14.4
				C231.3,197.3,224,183.7,211.2,179.8z M32.8,205.8c-0.7,2.2-2.1,4-4.2,5.1c-2.1,1.1-4.5,1.4-6.7,0.7c-4.6-1.4-7.2-6.3-5.8-10.9
				c1.1-3.5,4.2-5.9,7.7-6.1c0.2,0,0.4,0.1,0.6,0.1c0.2,0,0.5,0,0.7-0.1c0.6,0,1.3,0.1,1.9,0.3C31.7,196.2,34.2,201,32.8,205.8z
				 M212.4,205.8c-0.7,2.2-2.1,4-4.2,5.1c-2.1,1.1-4.5,1.4-6.7,0.7c-4.6-1.4-7.2-6.3-5.8-10.9c1.1-3.8,4.6-6.2,8.4-6.2
				c0.8,0,1.7,0.1,2.5,0.4C211.3,196.2,213.8,201,212.4,205.8z"/>
		</g>
	</g>
</g>
</svg>
