<?xml version="1.0" encoding="utf-8"?>
<!-- Generator: Adobe Illustrator 22.1.0, SVG Export Plug-In . SVG Version: 6.00 Build 0)  -->
<svg version="1.1" xmlns="http://www.w3.org/2000/svg" xmlns:xlink="http://www.w3.org/1999/xlink" x="0px" y="0px"
	 viewBox="0 0 773.8 272.7" style="enable-background:new 0 0 773.8 272.7;" xml:space="preserve">
<style type="text/css">
	.st0{fill:#FF7D00;}
	.st1{fill:#0073C6;}
	.st2{display:none;}
	.st3{display:inline;}
	.st4{fill:#FFFFFF;}
</style>
<g id="Primary_1_">
	<g>
		<g>
			<path class="st0" d="M153.9,79.6h-22c-2.1-6.1-6.9-11.1-13.5-13.1c-10.9-3.3-22.4,2.9-25.7,13.7c-1.6,5.3-1.1,10.8,1.5,15.7
				c2.6,4.9,6.9,8.4,12.2,10c2,0.6,4,0.9,6.1,0.9c3.4,0,6.7-0.8,9.7-2.5c4.6-2.5,8.1-6.6,9.7-11.5h22c9.2,0,16.9,7.5,17.1,16.7
				c0.1,4.4-1.6,8.7-4.9,12c-3.4,3.4-8,5.4-12.8,5.4h-26.9c-11.4,0-20.6,9.2-20.6,20.6v44.6c-6.1,2.1-11.1,6.9-13.1,13.5
				c-3.3,10.9,2.8,22.4,13.7,25.7c2,0.6,4,0.9,6.1,0.9c3.4,0,6.7-0.8,9.7-2.5c4.8-2.6,8.4-6.9,10-12.2c3.2-10.7-2.7-22-13.1-25.5
				v-44.6c0-4.1,3.3-7.4,7.4-7.4h26.9c8.3,0,16.4-3.4,22.2-9.4c5.7-5.8,8.8-13.5,8.7-21.5C183.9,92.9,170.3,79.6,153.9,79.6z
				 M119.5,88.4c-0.6,1.9-1.8,3.4-3.5,4.3c-1.8,0.9-3.8,1.1-5.7,0.6c-1.9-0.6-3.4-1.9-4.4-3.6c-0.9-1.7-1.1-3.7-0.5-5.6
				c1-3.2,3.9-5.2,7.1-5.2c0.7,0,1.4,0.1,2.1,0.3C118.5,80.3,120.7,84.4,119.5,88.4z M119.5,213.8c-0.6,1.9-1.8,3.4-3.5,4.3
				c-1.8,0.9-3.8,1.1-5.7,0.6c-3.9-1.2-6.1-5.3-4.9-9.2c1-3.2,3.9-5.2,7.1-5.2c0.7,0,1.4,0.1,2.1,0.3
				C118.5,205.8,120.7,209.8,119.5,213.8z"/>
			<path class="st1" d="M218.8,191.9c-5.2-1.6-10.6-1-15.2,1.3l-14.9-14.9c-1.5-1.5-2.2-3.6-2-5.7c0.1-1.2,0.6-3.3,2.9-4.8
				c19.4-12.9,31.1-34.4,31.3-57.7c0.1-18.3-7.1-35.7-20.3-48.9c-13.3-13.4-31.7-21.1-50.4-21.1H89.2c-19.1,0-34.7,15.6-34.7,34.7
				v117.4c-6.1,2.1-11.1,6.9-13.1,13.5c-3.3,10.9,2.8,22.4,13.7,25.7c2,0.6,4,0.9,6.1,0.9c3.4,0,6.7-0.8,9.7-2.5
				c4.8-2.6,8.4-6.9,10-12.2c3.2-10.7-2.7-22-13.1-25.5V74.8c0-11.8,9.6-21.5,21.5-21.5h60.9c15.2,0,30.1,6.3,41,17.2
				c10.7,10.7,16.5,24.8,16.4,39.5c-0.1,18.9-9.6,36.3-25.3,46.7c-5,3.3-8.1,8.6-8.7,14.5c-0.6,6.1,1.5,12,5.8,16.3l14.9,14.9
				c-0.5,1-0.9,2-1.2,3c-3.3,10.9,2.8,22.4,13.7,25.7c2,0.6,4,0.9,6.1,0.9c3.4,0,6.7-0.8,9.7-2.5c4.8-2.6,8.4-6.9,10-12.2
				C235.8,206.7,229.6,195.2,218.8,191.9z M68.2,213.8c-0.6,1.9-1.8,3.4-3.5,4.3c-1.8,0.9-3.8,1.1-5.7,0.6c-3.9-1.2-6.1-5.3-4.9-9.2
				c0.9-3,3.6-4.9,6.5-5.2c0.2,0,0.3,0.1,0.5,0.1c0.2,0,0.4,0,0.6-0.1c0.5,0,1.1,0.1,1.6,0.3C67.2,205.8,69.4,209.8,68.2,213.8z
				 M219.9,213.8c-0.6,1.9-1.8,3.4-3.5,4.3c-1.8,0.9-3.8,1.1-5.7,0.6c-3.9-1.2-6.1-5.3-4.9-9.2c1-3.2,3.9-5.2,7.1-5.2
				c0.7,0,1.4,0.1,2.1,0.3C218.9,205.8,221,209.8,219.9,213.8z"/>
		</g>
		<g>
			<path class="st1" d="M308.6,123.1l-10.1-14.6h-0.6h-10.5v14.6h-12.1V70.7h22.7c4.6,0,8.7,0.8,12.1,2.3c3.4,1.5,6,3.7,7.9,6.6
				c1.8,2.8,2.8,6.2,2.8,10.1c0,3.9-0.9,7.2-2.8,10.1c-1.9,2.8-4.5,5-8,6.5l11.7,16.8H308.6z M305.5,83c-1.9-1.6-4.7-2.4-8.3-2.4
				h-9.9v18.2h9.9c3.6,0,6.4-0.8,8.3-2.4c1.9-1.6,2.8-3.8,2.8-6.7C308.3,86.8,307.4,84.5,305.5,83z"/>
			<path class="st1" d="M368.5,106.2h-30.4c0.5,2.5,1.8,4.5,3.9,5.9c2,1.4,4.6,2.2,7.6,2.2c2.1,0,3.9-0.3,5.6-0.9
				c1.6-0.6,3.1-1.6,4.5-3l6.2,6.7c-3.8,4.3-9.3,6.5-16.6,6.5c-4.5,0-8.5-0.9-12-2.7c-3.5-1.8-6.2-4.2-8.1-7.4s-2.8-6.7-2.8-10.7
				c0-3.9,0.9-7.5,2.8-10.7c1.9-3.2,4.4-5.6,7.7-7.4c3.3-1.8,6.9-2.7,11-2.7c3.9,0,7.5,0.8,10.7,2.5c3.2,1.7,5.7,4.1,7.5,7.3
				c1.8,3.2,2.7,6.8,2.7,11C368.8,103.3,368.7,104.3,368.5,106.2z M341.2,93.3c-1.8,1.5-2.9,3.5-3.3,6.1h19.8
				c-0.4-2.5-1.5-4.6-3.3-6.1c-1.8-1.5-4-2.3-6.6-2.3C345.3,91.1,343,91.8,341.2,93.3z"/>
			<path class="st1" d="M380.3,122.4c-3.2-0.8-5.7-1.9-7.6-3.1l3.9-8.4c1.8,1.1,4,2.1,6.5,2.8c2.5,0.7,5,1.1,7.5,1.1
				c4.9,0,7.4-1.2,7.4-3.7c0-1.1-0.7-2-2-2.5c-1.3-0.5-3.4-0.9-6.2-1.3c-3.3-0.5-6-1.1-8.1-1.7c-2.1-0.6-4-1.8-5.6-3.4
				c-1.6-1.6-2.4-4-2.4-7c0-2.5,0.7-4.8,2.2-6.8c1.5-2,3.6-3.5,6.4-4.6c2.8-1.1,6.1-1.6,10-1.6c2.8,0,5.7,0.3,8.5,0.9
				c2.8,0.6,5.1,1.5,7,2.6l-3.9,8.3c-3.5-2-7.4-3-11.6-3c-2.5,0-4.4,0.3-5.6,1c-1.2,0.7-1.9,1.6-1.9,2.7c0,1.2,0.7,2.1,2,2.6
				c1.3,0.5,3.5,1,6.4,1.4c3.3,0.5,6,1.1,8.1,1.8c2.1,0.6,3.9,1.8,5.5,3.4c1.5,1.6,2.3,3.9,2.3,6.9c0,2.5-0.7,4.7-2.2,6.7
				c-1.5,1.9-3.7,3.5-6.5,4.5c-2.9,1.1-6.3,1.6-10.2,1.6C386.7,123.7,383.5,123.3,380.3,122.4z"/>
			<path class="st1" d="M455.4,106.2H425c0.5,2.5,1.8,4.5,3.9,5.9c2,1.4,4.6,2.2,7.6,2.2c2.1,0,3.9-0.3,5.6-0.9
				c1.6-0.6,3.1-1.6,4.5-3l6.2,6.7c-3.8,4.3-9.3,6.5-16.6,6.5c-4.5,0-8.5-0.9-12-2.7c-3.5-1.8-6.2-4.2-8.1-7.4s-2.8-6.7-2.8-10.7
				c0-3.9,0.9-7.5,2.8-10.7c1.9-3.2,4.4-5.6,7.7-7.4c3.3-1.8,6.9-2.7,11-2.7c3.9,0,7.5,0.8,10.7,2.5c3.2,1.7,5.7,4.1,7.5,7.3
				c1.8,3.2,2.7,6.8,2.7,11C455.6,103.3,455.6,104.3,455.4,106.2z M428.1,93.3c-1.8,1.5-2.9,3.5-3.3,6.1h19.8
				c-0.4-2.5-1.5-4.6-3.3-6.1c-1.8-1.5-4-2.3-6.6-2.3C432.1,91.1,429.9,91.8,428.1,93.3z"/>
			<path class="st1" d="M492.9,86.7c3.3,3,5,7.4,5,13.4v23H487v-5c-2.2,3.7-6.3,5.6-12.3,5.6c-3.1,0-5.8-0.5-8-1.6
				c-2.3-1-4-2.5-5.2-4.3c-1.2-1.8-1.8-3.9-1.8-6.3c0-3.7,1.4-6.7,4.2-8.8c2.8-2.1,7.2-3.2,13-3.2h9.3c0-2.5-0.8-4.5-2.3-5.9
				c-1.5-1.4-3.9-2.1-7-2.1c-2.1,0-4.3,0.3-6.3,1c-2.1,0.7-3.8,1.6-5.3,2.7l-4.2-8.1c2.2-1.5,4.8-2.7,7.9-3.6
				c3.1-0.8,6.2-1.3,9.5-1.3C484.7,82.2,489.5,83.7,492.9,86.7z M482.9,114.4c1.5-0.9,2.6-2.3,3.3-4.1v-4.1h-8
				c-4.8,0-7.2,1.6-7.2,4.7c0,1.5,0.6,2.7,1.8,3.6c1.2,0.9,2.8,1.3,4.8,1.3C479.6,115.8,481.4,115.4,482.9,114.4z"/>
			<path class="st1" d="M525.2,83.7c2.4-1,5.1-1.5,8.2-1.5V93c-1.3-0.1-2.2-0.2-2.6-0.2c-3.3,0-6,0.9-7.9,2.8
				c-1.9,1.9-2.8,4.7-2.8,8.4v19h-11.7V82.8h11.1v5.3C520.9,86.2,522.8,84.7,525.2,83.7z"/>
			<path class="st1" d="M547.8,121c-3.4-1.8-6.1-4.2-8-7.4c-1.9-3.1-2.9-6.7-2.9-10.7c0-4,1-7.6,2.9-10.7c1.9-3.1,4.6-5.6,8-7.4
				c3.4-1.8,7.3-2.7,11.6-2.7c4.2,0,7.9,0.9,11.1,2.7c3.2,1.8,5.5,4.3,6.9,7.6l-9,4.9c-2.1-3.7-5.1-5.5-9-5.5c-3,0-5.6,1-7.6,3
				c-2,2-3,4.7-3,8.1c0,3.4,1,6.2,3,8.1c2,2,4.5,3,7.6,3c4,0,7-1.8,9-5.5l9,4.9c-1.4,3.2-3.8,5.7-6.9,7.5c-3.2,1.8-6.9,2.7-11.1,2.7
				C555.1,123.7,551.3,122.8,547.8,121z"/>
			<path class="st1" d="M620.4,86.7c3.1,3,4.6,7.4,4.6,13.3v23h-11.7v-21.2c0-3.2-0.7-5.6-2.1-7.1c-1.4-1.6-3.4-2.4-6.1-2.4
				c-2.9,0-5.3,0.9-7,2.7c-1.7,1.8-2.6,4.5-2.6,8.1v19.9h-11.7V67.6h11.7V87c1.5-1.5,3.4-2.7,5.6-3.6c2.2-0.8,4.6-1.2,7.2-1.2
				C613.3,82.2,617.3,83.7,620.4,86.7z"/>
			<path class="st1" d="M697.7,124l-6.3-5.8c-5,3.9-10.8,5.8-17.5,5.8c-3.8,0-7.2-0.6-10.2-1.8c-3-1.2-5.4-2.9-7.1-5.1
				c-1.7-2.2-2.6-4.7-2.6-7.4c0-3.2,0.9-6.1,2.7-8.6c1.8-2.5,4.7-4.8,8.8-7.1c-1.9-1.9-3.3-3.8-4.1-5.6c-0.8-1.8-1.3-3.6-1.3-5.5
				c0-2.5,0.7-4.8,2-6.7c1.3-1.9,3.3-3.5,5.7-4.5c2.5-1.1,5.3-1.6,8.6-1.6c4.5,0,8.2,1.1,10.9,3.3c2.7,2.2,4.1,5.1,4.1,8.8
				c0,2.7-0.8,5.1-2.4,7.2c-1.6,2.1-4.2,4.1-7.8,6.1l9.6,8.9c1.1-2.4,2-5.1,2.6-8.1l9.3,2.9c-1,4.6-2.6,8.6-4.8,11.9l6.1,5.7
				L697.7,124z M684.6,111.8L671.9,100c-2.3,1.3-4,2.7-5,4c-1,1.3-1.5,2.8-1.5,4.4c0,1.9,0.8,3.5,2.5,4.7c1.7,1.2,4,1.8,6.8,1.8
				C678.4,114.8,681.7,113.8,684.6,111.8z M672.3,79.3c-1,0.9-1.5,2-1.5,3.4c0,1,0.3,2,0.8,3c0.5,0.9,1.6,2.2,3.2,3.7
				c2.5-1.3,4.3-2.6,5.3-3.6c1-1.1,1.5-2.2,1.5-3.5c0-1.3-0.4-2.3-1.3-3.1c-0.9-0.8-2.2-1.2-3.8-1.2C674.7,78,673.3,78.4,672.3,79.3
				z"/>
			<path class="st0" d="M310,139.5c3.4,1.5,6,3.7,7.9,6.6c1.8,2.8,2.8,6.2,2.8,10.1c0,3.8-0.9,7.2-2.8,10.1
				c-1.8,2.9-4.5,5.1-7.9,6.6c-3.4,1.5-7.4,2.3-12.1,2.3h-10.5v14.4h-12.1v-52.3h22.7C302.5,137.2,306.5,138,310,139.5z
				 M305.5,162.9c1.9-1.6,2.8-3.8,2.8-6.7c0-2.9-0.9-5.2-2.8-6.8c-1.9-1.6-4.7-2.4-8.3-2.4h-9.9v18.2h9.9
				C300.8,165.2,303.6,164.4,305.5,162.9z"/>
			<path class="st0" d="M345.2,150.2c2.4-1,5.1-1.5,8.2-1.5v10.8c-1.3-0.1-2.2-0.2-2.6-0.2c-3.3,0-6,0.9-7.9,2.8
				c-1.9,1.9-2.8,4.7-2.8,8.4v19h-11.7v-40.2h11.1v5.3C340.9,152.7,342.8,151.2,345.2,150.2z"/>
			<path class="st0" d="M367.7,187.5c-3.4-1.8-6-4.2-7.9-7.4c-1.9-3.1-2.8-6.7-2.8-10.7c0-4,0.9-7.6,2.8-10.7s4.5-5.6,7.9-7.4
				c3.4-1.8,7.2-2.7,11.4-2.7c4.2,0,8,0.9,11.4,2.7c3.3,1.8,6,4.2,7.9,7.4c1.9,3.1,2.8,6.7,2.8,10.7c0,4-0.9,7.6-2.8,10.7
				c-1.9,3.1-4.5,5.6-7.9,7.4c-3.3,1.8-7.1,2.7-11.4,2.7C374.8,190.1,371,189.2,367.7,187.5z M386.4,177.5c1.9-2,2.9-4.7,2.9-8.1
				c0-3.4-1-6.1-2.9-8.1c-1.9-2-4.4-3-7.4-3c-3,0-5.5,1-7.4,3c-1.9,2-2.9,4.7-2.9,8.1c0,3.4,1,6.1,2.9,8.1c1.9,2,4.4,3,7.4,3
				C382.1,180.6,384.5,179.5,386.4,177.5z"/>
			<path class="st0" d="M434.8,187.6c-1.1,0.8-2.6,1.5-4.2,1.9c-1.7,0.4-3.4,0.6-5.3,0.6c-4.8,0-8.5-1.2-11.1-3.7s-3.9-6-3.9-10.8
				v-16.5h-6.2v-9h6.2v-9.8H422v9.8h10v9h-10v16.4c0,1.7,0.4,3,1.3,3.9c0.9,0.9,2.1,1.4,3.7,1.4c1.8,0,3.4-0.5,4.7-1.5L434.8,187.6z
				"/>
			<path class="st0" d="M447.9,187.5c-3.4-1.8-6-4.2-7.9-7.4c-1.9-3.1-2.8-6.7-2.8-10.7c0-4,0.9-7.6,2.8-10.7s4.5-5.6,7.9-7.4
				c3.4-1.8,7.2-2.7,11.4-2.7c4.2,0,8,0.9,11.4,2.7c3.3,1.8,6,4.2,7.9,7.4c1.9,3.1,2.8,6.7,2.8,10.7c0,4-0.9,7.6-2.8,10.7
				c-1.9,3.1-4.5,5.6-7.9,7.4c-3.3,1.8-7.1,2.7-11.4,2.7C455.1,190.1,451.3,189.2,447.9,187.5z M466.7,177.5c1.9-2,2.9-4.7,2.9-8.1
				c0-3.4-1-6.1-2.9-8.1c-1.9-2-4.4-3-7.4-3c-3,0-5.5,1-7.4,3c-1.9,2-2.9,4.7-2.9,8.1c0,3.4,1,6.1,2.9,8.1c1.9,2,4.4,3,7.4,3
				C462.3,180.6,464.7,179.5,466.7,177.5z"/>
			<path class="st0" d="M515.1,187.6c-1.1,0.8-2.6,1.5-4.2,1.9c-1.7,0.4-3.4,0.6-5.3,0.6c-4.8,0-8.5-1.2-11.1-3.7s-3.9-6-3.9-10.8
				v-16.5h-6.2v-9h6.2v-9.8h11.7v9.8h10v9h-10v16.4c0,1.7,0.4,3,1.3,3.9c0.9,0.9,2.1,1.4,3.7,1.4c1.8,0,3.4-0.5,4.7-1.5L515.1,187.6
				z"/>
			<path class="st0" d="M560.8,149.3L542.7,192c-1.8,4.6-4.1,7.9-6.8,9.8c-2.7,1.9-6,2.8-9.8,2.8c-2.1,0-4.2-0.3-6.2-1
				c-2-0.6-3.7-1.5-5-2.7l4.3-8.3c0.9,0.8,1.9,1.4,3.1,1.9c1.2,0.4,2.3,0.7,3.5,0.7c1.6,0,2.9-0.4,3.9-1.2c1-0.8,1.9-2.1,2.7-3.8
				l0.2-0.4l-17.4-40.5h12l11.3,27.3l11.4-27.3H560.8z"/>
			<path class="st0" d="M599.6,151.3c3.1,1.7,5.5,4.1,7.2,7.3c1.7,3.1,2.6,6.7,2.6,10.9c0,4.1-0.9,7.8-2.6,10.9
				c-1.7,3.1-4.1,5.5-7.2,7.3c-3.1,1.7-6.5,2.6-10.2,2.6c-5.1,0-9.2-1.6-12.1-4.9V204h-11.7v-54.7h11.1v4.6
				c2.9-3.5,7.1-5.2,12.6-5.2C593.1,148.7,596.5,149.6,599.6,151.3z M594.7,177.5c1.9-2,2.9-4.7,2.9-8.1c0-3.4-1-6.1-2.9-8.1
				c-1.9-2-4.4-3-7.4-3c-3,0-5.4,1-7.4,3c-1.9,2-2.9,4.7-2.9,8.1c0,3.4,1,6.1,2.9,8.1c1.9,2,4.4,3,7.4,3
				C590.4,180.6,592.8,179.5,594.7,177.5z"/>
			<path class="st0" d="M617.8,141.8c-1.3-1.2-2-2.8-2-4.6c0-1.8,0.7-3.4,2-4.6c1.3-1.2,3.1-1.9,5.2-1.9c2.1,0,3.9,0.6,5.2,1.8
				c1.3,1.2,2,2.7,2,4.5c0,1.9-0.7,3.6-2,4.8c-1.3,1.3-3.1,1.9-5.2,1.9C620.9,143.7,619.1,143.1,617.8,141.8z M617.2,149.3h11.7
				v40.2h-11.7V149.3z"/>
			<path class="st0" d="M676.2,153.2c3.1,3,4.6,7.4,4.6,13.3v23h-11.7v-21.2c0-3.2-0.7-5.6-2.1-7.1c-1.4-1.6-3.4-2.4-6.1-2.4
				c-2.9,0-5.3,0.9-7,2.7c-1.7,1.8-2.6,4.5-2.6,8.1v19.9h-11.7v-40.2h11.1v4.7c1.5-1.7,3.5-3,5.8-3.9c2.3-0.9,4.8-1.4,7.6-1.4
				C669.1,148.7,673.2,150.2,676.2,153.2z"/>
			<path class="st0" d="M733.3,149.3v33.5c0,7.4-1.9,12.9-5.8,16.4c-3.8,3.6-9.4,5.4-16.8,5.4c-3.9,0-7.6-0.5-11.1-1.4
				c-3.5-0.9-6.4-2.3-8.7-4.1l4.6-8.4c1.7,1.4,3.8,2.5,6.4,3.3s5.2,1.2,7.8,1.2c4,0,7-0.9,8.9-2.7c1.9-1.8,2.9-4.6,2.9-8.3v-1.7
				c-3,3.3-7.3,5-12.7,5c-3.7,0-7.1-0.8-10.1-2.4c-3.1-1.6-5.5-3.9-7.3-6.8c-1.8-2.9-2.7-6.3-2.7-10.2c0-3.8,0.9-7.2,2.7-10.2
				c1.8-2.9,4.2-5.2,7.3-6.8c3.1-1.6,6.4-2.4,10.1-2.4c5.8,0,10.3,1.9,13.3,5.8v-5.2H733.3z M718.8,175.3c2-1.8,3-4.2,3-7.1
				c0-2.9-1-5.3-3-7.1c-2-1.8-4.5-2.7-7.6-2.7c-3.1,0-5.6,0.9-7.6,2.7c-2,1.8-3,4.2-3,7.1c0,2.9,1,5.3,3,7.1c2,1.8,4.5,2.7,7.6,2.7
				C714.3,178,716.9,177.1,718.8,175.3z"/>
		</g>
	</g>
</g>
<g id="White" class="st2">
	<g class="st3">
		<g>
			<path class="st4" d="M153.9,79.6h-22c-2.1-6.1-6.9-11.1-13.5-13.1c-10.9-3.3-22.4,2.9-25.7,13.7c-1.6,5.3-1.1,10.8,1.5,15.7
				c2.6,4.9,6.9,8.4,12.2,10c2,0.6,4,0.9,6.1,0.9c3.4,0,6.7-0.8,9.7-2.5c4.6-2.5,8.1-6.6,9.7-11.5h22c9.2,0,16.9,7.5,17.1,16.7
				c0.1,4.4-1.6,8.7-4.9,12c-3.4,3.4-8,5.4-12.8,5.4h-26.9c-11.4,0-20.6,9.2-20.6,20.6v44.6c-6.1,2.1-11.1,6.9-13.1,13.5
				c-3.3,10.9,2.8,22.4,13.7,25.7c2,0.6,4,0.9,6.1,0.9c3.4,0,6.7-0.8,9.7-2.5c4.8-2.6,8.4-6.9,10-12.2c3.2-10.7-2.7-22-13.1-25.5
				v-44.6c0-4.1,3.3-7.4,7.4-7.4h26.9c8.3,0,16.4-3.4,22.2-9.4c5.7-5.8,8.8-13.5,8.7-21.5C183.9,92.9,170.3,79.6,153.9,79.6z
				 M119.5,88.4c-0.6,1.9-1.8,3.4-3.5,4.3c-1.8,0.9-3.8,1.1-5.7,0.6c-1.9-0.6-3.4-1.9-4.4-3.6c-0.9-1.7-1.1-3.7-0.5-5.6
				c1-3.2,3.9-5.2,7.1-5.2c0.7,0,1.4,0.1,2.1,0.3C118.5,80.3,120.7,84.4,119.5,88.4z M119.5,213.8c-0.6,1.9-1.8,3.4-3.5,4.3
				c-1.8,0.9-3.8,1.1-5.7,0.6c-3.9-1.2-6.1-5.3-4.9-9.2c1-3.2,3.9-5.2,7.1-5.2c0.7,0,1.4,0.1,2.1,0.3
				C118.5,205.8,120.7,209.8,119.5,213.8z"/>
			<path class="st4" d="M218.8,191.9c-5.2-1.6-10.6-1-15.2,1.3l-14.9-14.9c-1.5-1.5-2.2-3.6-2-5.7c0.1-1.2,0.6-3.3,2.9-4.8
				c19.4-12.9,31.1-34.4,31.3-57.7c0.1-18.3-7.1-35.7-20.3-48.9c-13.3-13.4-31.7-21.1-50.4-21.1H89.2c-19.1,0-34.7,15.6-34.7,34.7
				v117.4c-6.1,2.1-11.1,6.9-13.1,13.5c-3.3,10.9,2.8,22.4,13.7,25.7c2,0.6,4,0.9,6.1,0.9c3.4,0,6.7-0.8,9.7-2.5
				c4.8-2.6,8.4-6.9,10-12.2c3.2-10.7-2.7-22-13.1-25.5V74.8c0-11.8,9.6-21.5,21.5-21.5h60.9c15.2,0,30.1,6.3,41,17.2
				c10.7,10.7,16.5,24.8,16.4,39.5c-0.1,18.9-9.6,36.3-25.3,46.7c-5,3.3-8.1,8.6-8.7,14.5c-0.6,6.1,1.5,12,5.8,16.3l14.9,14.9
				c-0.5,1-0.9,2-1.2,3c-3.3,10.9,2.8,22.4,13.7,25.7c2,0.6,4,0.9,6.1,0.9c3.4,0,6.7-0.8,9.7-2.5c4.8-2.6,8.4-6.9,10-12.2
				C235.8,206.7,229.6,195.2,218.8,191.9z M68.2,213.8c-0.6,1.9-1.8,3.4-3.5,4.3c-1.8,0.9-3.8,1.1-5.7,0.6c-3.9-1.2-6.1-5.3-4.9-9.2
				c0.9-3,3.6-4.9,6.5-5.2c0.2,0,0.3,0.1,0.5,0.1c0.2,0,0.4,0,0.6-0.1c0.5,0,1.1,0.1,1.6,0.3C67.2,205.8,69.4,209.8,68.2,213.8z
				 M219.9,213.8c-0.6,1.9-1.8,3.4-3.5,4.3c-1.8,0.9-3.8,1.1-5.7,0.6c-3.9-1.2-6.1-5.3-4.9-9.2c1-3.2,3.9-5.2,7.1-5.2
				c0.7,0,1.4,0.1,2.1,0.3C218.9,205.8,221,209.8,219.9,213.8z"/>
		</g>
		<g>
			<path class="st4" d="M308.6,123.1l-10.1-14.6h-0.6h-10.5v14.6h-12.1V70.7h22.7c4.6,0,8.7,0.8,12.1,2.3c3.4,1.5,6,3.7,7.9,6.6
				c1.8,2.8,2.8,6.2,2.8,10.1c0,3.9-0.9,7.2-2.8,10.1c-1.9,2.8-4.5,5-8,6.5l11.7,16.8H308.6z M305.5,83c-1.9-1.6-4.7-2.4-8.3-2.4
				h-9.9v18.2h9.9c3.6,0,6.4-0.8,8.3-2.4c1.9-1.6,2.8-3.8,2.8-6.7C308.3,86.8,307.4,84.5,305.5,83z"/>
			<path class="st4" d="M368.5,106.2h-30.4c0.5,2.5,1.8,4.5,3.9,5.9c2,1.4,4.6,2.2,7.6,2.2c2.1,0,3.9-0.3,5.6-0.9
				c1.6-0.6,3.1-1.6,4.5-3l6.2,6.7c-3.8,4.3-9.3,6.5-16.6,6.5c-4.5,0-8.5-0.9-12-2.7c-3.5-1.8-6.2-4.2-8.1-7.4s-2.8-6.7-2.8-10.7
				c0-3.9,0.9-7.5,2.8-10.7c1.9-3.2,4.4-5.6,7.7-7.4c3.3-1.8,6.9-2.7,11-2.7c3.9,0,7.5,0.8,10.7,2.5c3.2,1.7,5.7,4.1,7.5,7.3
				c1.8,3.2,2.7,6.8,2.7,11C368.8,103.3,368.7,104.3,368.5,106.2z M341.2,93.3c-1.8,1.5-2.9,3.5-3.3,6.1h19.8
				c-0.4-2.5-1.5-4.6-3.3-6.1c-1.8-1.5-4-2.3-6.6-2.3C345.3,91.1,343,91.8,341.2,93.3z"/>
			<path class="st4" d="M380.3,122.4c-3.2-0.8-5.7-1.9-7.6-3.1l3.9-8.4c1.8,1.1,4,2.1,6.5,2.8c2.5,0.7,5,1.1,7.5,1.1
				c4.9,0,7.4-1.2,7.4-3.7c0-1.1-0.7-2-2-2.5c-1.3-0.5-3.4-0.9-6.2-1.3c-3.3-0.5-6-1.1-8.1-1.7c-2.1-0.6-4-1.8-5.6-3.4
				c-1.6-1.6-2.4-4-2.4-7c0-2.5,0.7-4.8,2.2-6.8c1.5-2,3.6-3.5,6.4-4.6c2.8-1.1,6.1-1.6,10-1.6c2.8,0,5.7,0.3,8.5,0.9
				c2.8,0.6,5.1,1.5,7,2.6l-3.9,8.3c-3.5-2-7.4-3-11.6-3c-2.5,0-4.4,0.3-5.6,1c-1.2,0.7-1.9,1.6-1.9,2.7c0,1.2,0.7,2.1,2,2.6
				c1.3,0.5,3.5,1,6.4,1.4c3.3,0.5,6,1.1,8.1,1.8c2.1,0.6,3.9,1.8,5.5,3.4c1.5,1.6,2.3,3.9,2.3,6.9c0,2.5-0.7,4.7-2.2,6.7
				c-1.5,1.9-3.7,3.5-6.5,4.5c-2.9,1.1-6.3,1.6-10.2,1.6C386.7,123.7,383.5,123.3,380.3,122.4z"/>
			<path class="st4" d="M455.4,106.2H425c0.5,2.5,1.8,4.5,3.9,5.9c2,1.4,4.6,2.2,7.6,2.2c2.1,0,3.9-0.3,5.6-0.9
				c1.6-0.6,3.1-1.6,4.5-3l6.2,6.7c-3.8,4.3-9.3,6.5-16.6,6.5c-4.5,0-8.5-0.9-12-2.7c-3.5-1.8-6.2-4.2-8.1-7.4s-2.8-6.7-2.8-10.7
				c0-3.9,0.9-7.5,2.8-10.7c1.9-3.2,4.4-5.6,7.7-7.4c3.3-1.8,6.9-2.7,11-2.7c3.9,0,7.5,0.8,10.7,2.5c3.2,1.7,5.7,4.1,7.5,7.3
				c1.8,3.2,2.7,6.8,2.7,11C455.6,103.3,455.6,104.3,455.4,106.2z M428.1,93.3c-1.8,1.5-2.9,3.5-3.3,6.1h19.8
				c-0.4-2.5-1.5-4.6-3.3-6.1c-1.8-1.5-4-2.3-6.6-2.3C432.1,91.1,429.9,91.8,428.1,93.3z"/>
			<path class="st4" d="M492.9,86.7c3.3,3,5,7.4,5,13.4v23H487v-5c-2.2,3.7-6.3,5.6-12.3,5.6c-3.1,0-5.8-0.5-8-1.6
				c-2.3-1-4-2.5-5.2-4.3c-1.2-1.8-1.8-3.9-1.8-6.3c0-3.7,1.4-6.7,4.2-8.8c2.8-2.1,7.2-3.2,13-3.2h9.3c0-2.5-0.8-4.5-2.3-5.9
				c-1.5-1.4-3.9-2.1-7-2.1c-2.1,0-4.3,0.3-6.3,1c-2.1,0.7-3.8,1.6-5.3,2.7l-4.2-8.1c2.2-1.5,4.8-2.7,7.9-3.6
				c3.1-0.8,6.2-1.3,9.5-1.3C484.7,82.2,489.5,83.7,492.9,86.7z M482.9,114.4c1.5-0.9,2.6-2.3,3.3-4.1v-4.1h-8
				c-4.8,0-7.2,1.6-7.2,4.7c0,1.5,0.6,2.7,1.8,3.6c1.2,0.9,2.8,1.3,4.8,1.3C479.6,115.8,481.4,115.4,482.9,114.4z"/>
			<path class="st4" d="M525.2,83.7c2.4-1,5.1-1.5,8.2-1.5V93c-1.3-0.1-2.2-0.2-2.6-0.2c-3.3,0-6,0.9-7.9,2.8
				c-1.9,1.9-2.8,4.7-2.8,8.4v19h-11.7V82.8h11.1v5.3C520.9,86.2,522.8,84.7,525.2,83.7z"/>
			<path class="st4" d="M547.8,121c-3.4-1.8-6.1-4.2-8-7.4c-1.9-3.1-2.9-6.7-2.9-10.7c0-4,1-7.6,2.9-10.7c1.9-3.1,4.6-5.6,8-7.4
				c3.4-1.8,7.3-2.7,11.6-2.7c4.2,0,7.9,0.9,11.1,2.7c3.2,1.8,5.5,4.3,6.9,7.6l-9,4.9c-2.1-3.7-5.1-5.5-9-5.5c-3,0-5.6,1-7.6,3
				c-2,2-3,4.7-3,8.1c0,3.4,1,6.2,3,8.1c2,2,4.5,3,7.6,3c4,0,7-1.8,9-5.5l9,4.9c-1.4,3.2-3.8,5.7-6.9,7.5c-3.2,1.8-6.9,2.7-11.1,2.7
				C555.1,123.7,551.3,122.8,547.8,121z"/>
			<path class="st4" d="M620.4,86.7c3.1,3,4.6,7.4,4.6,13.3v23h-11.7v-21.2c0-3.2-0.7-5.6-2.1-7.1c-1.4-1.6-3.4-2.4-6.1-2.4
				c-2.9,0-5.3,0.9-7,2.7c-1.7,1.8-2.6,4.5-2.6,8.1v19.9h-11.7V67.6h11.7V87c1.5-1.5,3.4-2.7,5.6-3.6c2.2-0.8,4.6-1.2,7.2-1.2
				C613.3,82.2,617.3,83.7,620.4,86.7z"/>
			<path class="st4" d="M697.7,124l-6.3-5.8c-5,3.9-10.8,5.8-17.5,5.8c-3.8,0-7.2-0.6-10.2-1.8c-3-1.2-5.4-2.9-7.1-5.1
				c-1.7-2.2-2.6-4.7-2.6-7.4c0-3.2,0.9-6.1,2.7-8.6c1.8-2.5,4.7-4.8,8.8-7.1c-1.9-1.9-3.3-3.8-4.1-5.6c-0.8-1.8-1.3-3.6-1.3-5.5
				c0-2.5,0.7-4.8,2-6.7c1.3-1.9,3.3-3.5,5.7-4.5c2.5-1.1,5.3-1.6,8.6-1.6c4.5,0,8.2,1.1,10.9,3.3c2.7,2.2,4.1,5.1,4.1,8.8
				c0,2.7-0.8,5.1-2.4,7.2c-1.6,2.1-4.2,4.1-7.8,6.1l9.6,8.9c1.1-2.4,2-5.1,2.6-8.1l9.3,2.9c-1,4.6-2.6,8.6-4.8,11.9l6.1,5.7
				L697.7,124z M684.6,111.8L671.9,100c-2.3,1.3-4,2.7-5,4c-1,1.3-1.5,2.8-1.5,4.4c0,1.9,0.8,3.5,2.5,4.7c1.7,1.2,4,1.8,6.8,1.8
				C678.4,114.8,681.7,113.8,684.6,111.8z M672.3,79.3c-1,0.9-1.5,2-1.5,3.4c0,1,0.3,2,0.8,3c0.5,0.9,1.6,2.2,3.2,3.7
				c2.5-1.3,4.3-2.6,5.3-3.6c1-1.1,1.5-2.2,1.5-3.5c0-1.3-0.4-2.3-1.3-3.1c-0.9-0.8-2.2-1.2-3.8-1.2C674.7,78,673.3,78.4,672.3,79.3
				z"/>
			<path class="st4" d="M310,139.5c3.4,1.5,6,3.7,7.9,6.6c1.8,2.8,2.8,6.2,2.8,10.1c0,3.8-0.9,7.2-2.8,10.1
				c-1.8,2.9-4.5,5.1-7.9,6.6c-3.4,1.5-7.4,2.3-12.1,2.3h-10.5v14.4h-12.1v-52.3h22.7C302.5,137.2,306.5,138,310,139.5z
				 M305.5,162.9c1.9-1.6,2.8-3.8,2.8-6.7c0-2.9-0.9-5.2-2.8-6.8c-1.9-1.6-4.7-2.4-8.3-2.4h-9.9v18.2h9.9
				C300.8,165.2,303.6,164.4,305.5,162.9z"/>
			<path class="st4" d="M345.2,150.2c2.4-1,5.1-1.5,8.2-1.5v10.8c-1.3-0.1-2.2-0.2-2.6-0.2c-3.3,0-6,0.9-7.9,2.8
				c-1.9,1.9-2.8,4.7-2.8,8.4v19h-11.7v-40.2h11.1v5.3C340.9,152.7,342.8,151.2,345.2,150.2z"/>
			<path class="st4" d="M367.7,187.5c-3.4-1.8-6-4.2-7.9-7.4c-1.9-3.1-2.8-6.7-2.8-10.7c0-4,0.9-7.6,2.8-10.7s4.5-5.6,7.9-7.4
				c3.4-1.8,7.2-2.7,11.4-2.7c4.2,0,8,0.9,11.4,2.7c3.3,1.8,6,4.2,7.9,7.4c1.9,3.1,2.8,6.7,2.8,10.7c0,4-0.9,7.6-2.8,10.7
				c-1.9,3.1-4.5,5.6-7.9,7.4c-3.3,1.8-7.1,2.7-11.4,2.7C374.8,190.1,371,189.2,367.7,187.5z M386.4,177.5c1.9-2,2.9-4.7,2.9-8.1
				c0-3.4-1-6.1-2.9-8.1c-1.9-2-4.4-3-7.4-3c-3,0-5.5,1-7.4,3c-1.9,2-2.9,4.7-2.9,8.1c0,3.4,1,6.1,2.9,8.1c1.9,2,4.4,3,7.4,3
				C382.1,180.6,384.5,179.5,386.4,177.5z"/>
			<path class="st4" d="M434.8,187.6c-1.1,0.8-2.6,1.5-4.2,1.9c-1.7,0.4-3.4,0.6-5.3,0.6c-4.8,0-8.5-1.2-11.1-3.7s-3.9-6-3.9-10.8
				v-16.5h-6.2v-9h6.2v-9.8H422v9.8h10v9h-10v16.4c0,1.7,0.4,3,1.3,3.9c0.9,0.9,2.1,1.4,3.7,1.4c1.8,0,3.4-0.5,4.7-1.5L434.8,187.6z
				"/>
			<path class="st4" d="M447.9,187.5c-3.4-1.8-6-4.2-7.9-7.4c-1.9-3.1-2.8-6.7-2.8-10.7c0-4,0.9-7.6,2.8-10.7s4.5-5.6,7.9-7.4
				c3.4-1.8,7.2-2.7,11.4-2.7c4.2,0,8,0.9,11.4,2.7c3.3,1.8,6,4.2,7.9,7.4c1.9,3.1,2.8,6.7,2.8,10.7c0,4-0.9,7.6-2.8,10.7
				c-1.9,3.1-4.5,5.6-7.9,7.4c-3.3,1.8-7.1,2.7-11.4,2.7C455.1,190.1,451.3,189.2,447.9,187.5z M466.7,177.5c1.9-2,2.9-4.7,2.9-8.1
				c0-3.4-1-6.1-2.9-8.1c-1.9-2-4.4-3-7.4-3c-3,0-5.5,1-7.4,3c-1.9,2-2.9,4.7-2.9,8.1c0,3.4,1,6.1,2.9,8.1c1.9,2,4.4,3,7.4,3
				C462.3,180.6,464.7,179.5,466.7,177.5z"/>
			<path class="st4" d="M515.1,187.6c-1.1,0.8-2.6,1.5-4.2,1.9c-1.7,0.4-3.4,0.6-5.3,0.6c-4.8,0-8.5-1.2-11.1-3.7s-3.9-6-3.9-10.8
				v-16.5h-6.2v-9h6.2v-9.8h11.7v9.8h10v9h-10v16.4c0,1.7,0.4,3,1.3,3.9c0.9,0.9,2.1,1.4,3.7,1.4c1.8,0,3.4-0.5,4.7-1.5L515.1,187.6
				z"/>
			<path class="st4" d="M560.8,149.3L542.7,192c-1.8,4.6-4.1,7.9-6.8,9.8c-2.7,1.9-6,2.8-9.8,2.8c-2.1,0-4.2-0.3-6.2-1
				c-2-0.6-3.7-1.5-5-2.7l4.3-8.3c0.9,0.8,1.9,1.4,3.1,1.9c1.2,0.4,2.3,0.7,3.5,0.7c1.6,0,2.9-0.4,3.9-1.2c1-0.8,1.9-2.1,2.7-3.8
				l0.2-0.4l-17.4-40.5h12l11.3,27.3l11.4-27.3H560.8z"/>
			<path class="st4" d="M599.6,151.3c3.1,1.7,5.5,4.1,7.2,7.3c1.7,3.1,2.6,6.7,2.6,10.9c0,4.1-0.9,7.8-2.6,10.9
				c-1.7,3.1-4.1,5.5-7.2,7.3c-3.1,1.7-6.5,2.6-10.2,2.6c-5.1,0-9.2-1.6-12.1-4.9V204h-11.7v-54.7h11.1v4.6
				c2.9-3.5,7.1-5.2,12.6-5.2C593.1,148.7,596.5,149.6,599.6,151.3z M594.7,177.5c1.9-2,2.9-4.7,2.9-8.1c0-3.4-1-6.1-2.9-8.1
				c-1.9-2-4.4-3-7.4-3c-3,0-5.4,1-7.4,3c-1.9,2-2.9,4.7-2.9,8.1c0,3.4,1,6.1,2.9,8.1c1.9,2,4.4,3,7.4,3
				C590.4,180.6,592.8,179.5,594.7,177.5z"/>
			<path class="st4" d="M617.8,141.8c-1.3-1.2-2-2.8-2-4.6c0-1.8,0.7-3.4,2-4.6c1.3-1.2,3.1-1.9,5.2-1.9c2.1,0,3.9,0.6,5.2,1.8
				c1.3,1.2,2,2.7,2,4.5c0,1.9-0.7,3.6-2,4.8c-1.3,1.3-3.1,1.9-5.2,1.9C620.9,143.7,619.1,143.1,617.8,141.8z M617.2,149.3h11.7
				v40.2h-11.7V149.3z"/>
			<path class="st4" d="M676.2,153.2c3.1,3,4.6,7.4,4.6,13.3v23h-11.7v-21.2c0-3.2-0.7-5.6-2.1-7.1c-1.4-1.6-3.4-2.4-6.1-2.4
				c-2.9,0-5.3,0.9-7,2.7c-1.7,1.8-2.6,4.5-2.6,8.1v19.9h-11.7v-40.2h11.1v4.7c1.5-1.7,3.5-3,5.8-3.9c2.3-0.9,4.8-1.4,7.6-1.4
				C669.1,148.7,673.2,150.2,676.2,153.2z"/>
			<path class="st4" d="M733.3,149.3v33.5c0,7.4-1.9,12.9-5.8,16.4c-3.8,3.6-9.4,5.4-16.8,5.4c-3.9,0-7.6-0.5-11.1-1.4
				c-3.5-0.9-6.4-2.3-8.7-4.1l4.6-8.4c1.7,1.4,3.8,2.5,6.4,3.3s5.2,1.2,7.8,1.2c4,0,7-0.9,8.9-2.7c1.9-1.8,2.9-4.6,2.9-8.3v-1.7
				c-3,3.3-7.3,5-12.7,5c-3.7,0-7.1-0.8-10.1-2.4c-3.1-1.6-5.5-3.9-7.3-6.8c-1.8-2.9-2.7-6.3-2.7-10.2c0-3.8,0.9-7.2,2.7-10.2
				c1.8-2.9,4.2-5.2,7.3-6.8c3.1-1.6,6.4-2.4,10.1-2.4c5.8,0,10.3,1.9,13.3,5.8v-5.2H733.3z M718.8,175.3c2-1.8,3-4.2,3-7.1
				c0-2.9-1-5.3-3-7.1c-2-1.8-4.5-2.7-7.6-2.7c-3.1,0-5.6,0.9-7.6,2.7c-2,1.8-3,4.2-3,7.1c0,2.9,1,5.3,3,7.1c2,1.8,4.5,2.7,7.6,2.7
				C714.3,178,716.9,177.1,718.8,175.3z"/>
		</g>
	</g>
</g>
<g id="Black" class="st2">
	<g class="st3">
		<g>
			<path d="M153.9,79.6h-22c-2.1-6.1-6.9-11.1-13.5-13.1c-10.9-3.3-22.4,2.9-25.7,13.7c-1.6,5.3-1.1,10.8,1.5,15.7
				c2.6,4.9,6.9,8.4,12.2,10c2,0.6,4,0.9,6.1,0.9c3.4,0,6.7-0.8,9.7-2.5c4.6-2.5,8.1-6.6,9.7-11.5h22c9.2,0,16.9,7.5,17.1,16.7
				c0.1,4.4-1.6,8.7-4.9,12c-3.4,3.4-8,5.4-12.8,5.4h-26.9c-11.4,0-20.6,9.2-20.6,20.6v44.6c-6.1,2.1-11.1,6.9-13.1,13.5
				c-3.3,10.9,2.8,22.4,13.7,25.7c2,0.6,4,0.9,6.1,0.9c3.4,0,6.7-0.8,9.7-2.5c4.8-2.6,8.4-6.9,10-12.2c3.2-10.7-2.7-22-13.1-25.5
				v-44.6c0-4.1,3.3-7.4,7.4-7.4h26.9c8.3,0,16.4-3.4,22.2-9.4c5.7-5.8,8.8-13.5,8.7-21.5C183.9,92.9,170.3,79.6,153.9,79.6z
				 M119.5,88.4c-0.6,1.9-1.8,3.4-3.5,4.3c-1.8,0.9-3.8,1.1-5.7,0.6c-1.9-0.6-3.4-1.9-4.4-3.6c-0.9-1.7-1.1-3.7-0.5-5.6
				c1-3.2,3.9-5.2,7.1-5.2c0.7,0,1.4,0.1,2.1,0.3C118.5,80.3,120.7,84.4,119.5,88.4z M119.5,213.8c-0.6,1.9-1.8,3.4-3.5,4.3
				c-1.8,0.9-3.8,1.1-5.7,0.6c-3.9-1.2-6.1-5.3-4.9-9.2c1-3.2,3.9-5.2,7.1-5.2c0.7,0,1.4,0.1,2.1,0.3
				C118.5,205.8,120.7,209.8,119.5,213.8z"/>
			<path d="M218.8,191.9c-5.2-1.6-10.6-1-15.2,1.3l-14.9-14.9c-1.5-1.5-2.2-3.6-2-5.7c0.1-1.2,0.6-3.3,2.9-4.8
				c19.4-12.9,31.1-34.4,31.3-57.7c0.1-18.3-7.1-35.7-20.3-48.9c-13.3-13.4-31.7-21.1-50.4-21.1H89.2c-19.1,0-34.7,15.6-34.7,34.7
				v117.4c-6.1,2.1-11.1,6.9-13.1,13.5c-3.3,10.9,2.8,22.4,13.7,25.7c2,0.6,4,0.9,6.1,0.9c3.4,0,6.7-0.8,9.7-2.5
				c4.8-2.6,8.4-6.9,10-12.2c3.2-10.7-2.7-22-13.1-25.5V74.8c0-11.8,9.6-21.5,21.5-21.5h60.9c15.2,0,30.1,6.3,41,17.2
				c10.7,10.7,16.5,24.8,16.4,39.5c-0.1,18.9-9.6,36.3-25.3,46.7c-5,3.3-8.1,8.6-8.7,14.5c-0.6,6.1,1.5,12,5.8,16.3l14.9,14.9
				c-0.5,1-0.9,2-1.2,3c-3.3,10.9,2.8,22.4,13.7,25.7c2,0.6,4,0.9,6.1,0.9c3.4,0,6.7-0.8,9.7-2.5c4.8-2.6,8.4-6.9,10-12.2
				C235.8,206.7,229.6,195.2,218.8,191.9z M68.2,213.8c-0.6,1.9-1.8,3.4-3.5,4.3c-1.8,0.9-3.8,1.1-5.7,0.6c-3.9-1.2-6.1-5.3-4.9-9.2
				c0.9-3,3.6-4.9,6.5-5.2c0.2,0,0.3,0.1,0.5,0.1c0.2,0,0.4,0,0.6-0.1c0.5,0,1.1,0.1,1.6,0.3C67.2,205.8,69.4,209.8,68.2,213.8z
				 M219.9,213.8c-0.6,1.9-1.8,3.4-3.5,4.3c-1.8,0.9-3.8,1.1-5.7,0.6c-3.9-1.2-6.1-5.3-4.9-9.2c1-3.2,3.9-5.2,7.1-5.2
				c0.7,0,1.4,0.1,2.1,0.3C218.9,205.8,221,209.8,219.9,213.8z"/>
		</g>
		<g>
			<path d="M308.6,123.1l-10.1-14.6h-0.6h-10.5v14.6h-12.1V70.7h22.7c4.6,0,8.7,0.8,12.1,2.3c3.4,1.5,6,3.7,7.9,6.6
				c1.8,2.8,2.8,6.2,2.8,10.1c0,3.9-0.9,7.2-2.8,10.1c-1.9,2.8-4.5,5-8,6.5l11.7,16.8H308.6z M305.5,83c-1.9-1.6-4.7-2.4-8.3-2.4
				h-9.9v18.2h9.9c3.6,0,6.4-0.8,8.3-2.4c1.9-1.6,2.8-3.8,2.8-6.7C308.3,86.8,307.4,84.5,305.5,83z"/>
			<path d="M368.5,106.2h-30.4c0.5,2.5,1.8,4.5,3.9,5.9c2,1.4,4.6,2.2,7.6,2.2c2.1,0,3.9-0.3,5.6-0.9c1.6-0.6,3.1-1.6,4.5-3l6.2,6.7
				c-3.8,4.3-9.3,6.5-16.6,6.5c-4.5,0-8.5-0.9-12-2.7c-3.5-1.8-6.2-4.2-8.1-7.4s-2.8-6.7-2.8-10.7c0-3.9,0.9-7.5,2.8-10.7
				c1.9-3.2,4.4-5.6,7.7-7.4c3.3-1.8,6.9-2.7,11-2.7c3.9,0,7.5,0.8,10.7,2.5c3.2,1.7,5.7,4.1,7.5,7.3c1.8,3.2,2.7,6.8,2.7,11
				C368.8,103.3,368.7,104.3,368.5,106.2z M341.2,93.3c-1.8,1.5-2.9,3.5-3.3,6.1h19.8c-0.4-2.5-1.5-4.6-3.3-6.1
				c-1.8-1.5-4-2.3-6.6-2.3C345.3,91.1,343,91.8,341.2,93.3z"/>
			<path d="M380.3,122.4c-3.2-0.8-5.7-1.9-7.6-3.1l3.9-8.4c1.8,1.1,4,2.1,6.5,2.8c2.5,0.7,5,1.1,7.5,1.1c4.9,0,7.4-1.2,7.4-3.7
				c0-1.1-0.7-2-2-2.5c-1.3-0.5-3.4-0.9-6.2-1.3c-3.3-0.5-6-1.1-8.1-1.7c-2.1-0.6-4-1.8-5.6-3.4c-1.6-1.6-2.4-4-2.4-7
				c0-2.5,0.7-4.8,2.2-6.8c1.5-2,3.6-3.5,6.4-4.6c2.8-1.1,6.1-1.6,10-1.6c2.8,0,5.7,0.3,8.5,0.9c2.8,0.6,5.1,1.5,7,2.6l-3.9,8.3
				c-3.5-2-7.4-3-11.6-3c-2.5,0-4.4,0.3-5.6,1c-1.2,0.7-1.9,1.6-1.9,2.7c0,1.2,0.7,2.1,2,2.6c1.3,0.5,3.5,1,6.4,1.4
				c3.3,0.5,6,1.1,8.1,1.8c2.1,0.6,3.9,1.8,5.5,3.4c1.5,1.6,2.3,3.9,2.3,6.9c0,2.5-0.7,4.7-2.2,6.7c-1.5,1.9-3.7,3.5-6.5,4.5
				c-2.9,1.1-6.3,1.6-10.2,1.6C386.7,123.7,383.5,123.3,380.3,122.4z"/>
			<path d="M455.4,106.2H425c0.5,2.5,1.8,4.5,3.9,5.9c2,1.4,4.6,2.2,7.6,2.2c2.1,0,3.9-0.3,5.6-0.9c1.6-0.6,3.1-1.6,4.5-3l6.2,6.7
				c-3.8,4.3-9.3,6.5-16.6,6.5c-4.5,0-8.5-0.9-12-2.7c-3.5-1.8-6.2-4.2-8.1-7.4s-2.8-6.7-2.8-10.7c0-3.9,0.9-7.5,2.8-10.7
				c1.9-3.2,4.4-5.6,7.7-7.4c3.3-1.8,6.9-2.7,11-2.7c3.9,0,7.5,0.8,10.7,2.5c3.2,1.7,5.7,4.1,7.5,7.3c1.8,3.2,2.7,6.8,2.7,11
				C455.6,103.3,455.6,104.3,455.4,106.2z M428.1,93.3c-1.8,1.5-2.9,3.5-3.3,6.1h19.8c-0.4-2.5-1.5-4.6-3.3-6.1
				c-1.8-1.5-4-2.3-6.6-2.3C432.1,91.1,429.9,91.8,428.1,93.3z"/>
			<path d="M492.9,86.7c3.3,3,5,7.4,5,13.4v23H487v-5c-2.2,3.7-6.3,5.6-12.3,5.6c-3.1,0-5.8-0.5-8-1.6c-2.3-1-4-2.5-5.2-4.3
				c-1.2-1.8-1.8-3.9-1.8-6.3c0-3.7,1.4-6.7,4.2-8.8c2.8-2.1,7.2-3.2,13-3.2h9.3c0-2.5-0.8-4.5-2.3-5.9c-1.5-1.4-3.9-2.1-7-2.1
				c-2.1,0-4.3,0.3-6.3,1c-2.1,0.7-3.8,1.6-5.3,2.7l-4.2-8.1c2.2-1.5,4.8-2.7,7.9-3.6c3.1-0.8,6.2-1.3,9.5-1.3
				C484.7,82.2,489.5,83.7,492.9,86.7z M482.9,114.4c1.5-0.9,2.6-2.3,3.3-4.1v-4.1h-8c-4.8,0-7.2,1.6-7.2,4.7c0,1.5,0.6,2.7,1.8,3.6
				c1.2,0.9,2.8,1.3,4.8,1.3C479.6,115.8,481.4,115.4,482.9,114.4z"/>
			<path d="M525.2,83.7c2.4-1,5.1-1.5,8.2-1.5V93c-1.3-0.1-2.2-0.2-2.6-0.2c-3.3,0-6,0.9-7.9,2.8c-1.9,1.9-2.8,4.7-2.8,8.4v19h-11.7
				V82.8h11.1v5.3C520.9,86.2,522.8,84.7,525.2,83.7z"/>
			<path d="M547.8,121c-3.4-1.8-6.1-4.2-8-7.4c-1.9-3.1-2.9-6.7-2.9-10.7c0-4,1-7.6,2.9-10.7c1.9-3.1,4.6-5.6,8-7.4
				c3.4-1.8,7.3-2.7,11.6-2.7c4.2,0,7.9,0.9,11.1,2.7c3.2,1.8,5.5,4.3,6.9,7.6l-9,4.9c-2.1-3.7-5.1-5.5-9-5.5c-3,0-5.6,1-7.6,3
				c-2,2-3,4.7-3,8.1c0,3.4,1,6.2,3,8.1c2,2,4.5,3,7.6,3c4,0,7-1.8,9-5.5l9,4.9c-1.4,3.2-3.8,5.7-6.9,7.5c-3.2,1.8-6.9,2.7-11.1,2.7
				C555.1,123.7,551.3,122.8,547.8,121z"/>
			<path d="M620.4,86.7c3.1,3,4.6,7.4,4.6,13.3v23h-11.7v-21.2c0-3.2-0.7-5.6-2.1-7.1c-1.4-1.6-3.4-2.4-6.1-2.4
				c-2.9,0-5.3,0.9-7,2.7c-1.7,1.8-2.6,4.5-2.6,8.1v19.9h-11.7V67.6h11.7V87c1.5-1.5,3.4-2.7,5.6-3.6c2.2-0.8,4.6-1.2,7.2-1.2
				C613.3,82.2,617.3,83.7,620.4,86.7z"/>
			<path d="M697.7,124l-6.3-5.8c-5,3.9-10.8,5.8-17.5,5.8c-3.8,0-7.2-0.6-10.2-1.8c-3-1.2-5.4-2.9-7.1-5.1c-1.7-2.2-2.6-4.7-2.6-7.4
				c0-3.2,0.9-6.1,2.7-8.6c1.8-2.5,4.7-4.8,8.8-7.1c-1.9-1.9-3.3-3.8-4.1-5.6c-0.8-1.8-1.3-3.6-1.3-5.5c0-2.5,0.7-4.8,2-6.7
				c1.3-1.9,3.3-3.5,5.7-4.5c2.5-1.1,5.3-1.6,8.6-1.6c4.5,0,8.2,1.1,10.9,3.3c2.7,2.2,4.1,5.1,4.1,8.8c0,2.7-0.8,5.1-2.4,7.2
				c-1.6,2.1-4.2,4.1-7.8,6.1l9.6,8.9c1.1-2.4,2-5.1,2.6-8.1l9.3,2.9c-1,4.6-2.6,8.6-4.8,11.9l6.1,5.7L697.7,124z M684.6,111.8
				L671.9,100c-2.3,1.3-4,2.7-5,4c-1,1.3-1.5,2.8-1.5,4.4c0,1.9,0.8,3.5,2.5,4.7c1.7,1.2,4,1.8,6.8,1.8
				C678.4,114.8,681.7,113.8,684.6,111.8z M672.3,79.3c-1,0.9-1.5,2-1.5,3.4c0,1,0.3,2,0.8,3c0.5,0.9,1.6,2.2,3.2,3.7
				c2.5-1.3,4.3-2.6,5.3-3.6c1-1.1,1.5-2.2,1.5-3.5c0-1.3-0.4-2.3-1.3-3.1c-0.9-0.8-2.2-1.2-3.8-1.2C674.7,78,673.3,78.4,672.3,79.3
				z"/>
			<path d="M310,139.5c3.4,1.5,6,3.7,7.9,6.6c1.8,2.8,2.8,6.2,2.8,10.1c0,3.8-0.9,7.2-2.8,10.1c-1.8,2.9-4.5,5.1-7.9,6.6
				c-3.4,1.5-7.4,2.3-12.1,2.3h-10.5v14.4h-12.1v-52.3h22.7C302.5,137.2,306.5,138,310,139.5z M305.5,162.9c1.9-1.6,2.8-3.8,2.8-6.7
				c0-2.9-0.9-5.2-2.8-6.8c-1.9-1.6-4.7-2.4-8.3-2.4h-9.9v18.2h9.9C300.8,165.2,303.6,164.4,305.5,162.9z"/>
			<path d="M345.2,150.2c2.4-1,5.1-1.5,8.2-1.5v10.8c-1.3-0.1-2.2-0.2-2.6-0.2c-3.3,0-6,0.9-7.9,2.8c-1.9,1.9-2.8,4.7-2.8,8.4v19
				h-11.7v-40.2h11.1v5.3C340.9,152.7,342.8,151.2,345.2,150.2z"/>
			<path d="M367.7,187.5c-3.4-1.8-6-4.2-7.9-7.4c-1.9-3.1-2.8-6.7-2.8-10.7c0-4,0.9-7.6,2.8-10.7s4.5-5.6,7.9-7.4
				c3.4-1.8,7.2-2.7,11.4-2.7c4.2,0,8,0.9,11.4,2.7c3.3,1.8,6,4.2,7.9,7.4c1.9,3.1,2.8,6.7,2.8,10.7c0,4-0.9,7.6-2.8,10.7
				c-1.9,3.1-4.5,5.6-7.9,7.4c-3.3,1.8-7.1,2.7-11.4,2.7C374.8,190.1,371,189.2,367.7,187.5z M386.4,177.5c1.9-2,2.9-4.7,2.9-8.1
				c0-3.4-1-6.1-2.9-8.1c-1.9-2-4.4-3-7.4-3c-3,0-5.5,1-7.4,3c-1.9,2-2.9,4.7-2.9,8.1c0,3.4,1,6.1,2.9,8.1c1.9,2,4.4,3,7.4,3
				C382.1,180.6,384.5,179.5,386.4,177.5z"/>
			<path d="M434.8,187.6c-1.1,0.8-2.6,1.5-4.2,1.9c-1.7,0.4-3.4,0.6-5.3,0.6c-4.8,0-8.5-1.2-11.1-3.7s-3.9-6-3.9-10.8v-16.5h-6.2v-9
				h6.2v-9.8H422v9.8h10v9h-10v16.4c0,1.7,0.4,3,1.3,3.9c0.9,0.9,2.1,1.4,3.7,1.4c1.8,0,3.4-0.5,4.7-1.5L434.8,187.6z"/>
			<path d="M447.9,187.5c-3.4-1.8-6-4.2-7.9-7.4c-1.9-3.1-2.8-6.7-2.8-10.7c0-4,0.9-7.6,2.8-10.7s4.5-5.6,7.9-7.4
				c3.4-1.8,7.2-2.7,11.4-2.7c4.2,0,8,0.9,11.4,2.7c3.3,1.8,6,4.2,7.9,7.4c1.9,3.1,2.8,6.7,2.8,10.7c0,4-0.9,7.6-2.8,10.7
				c-1.9,3.1-4.5,5.6-7.9,7.4c-3.3,1.8-7.1,2.7-11.4,2.7C455.1,190.1,451.3,189.2,447.9,187.5z M466.7,177.5c1.9-2,2.9-4.7,2.9-8.1
				c0-3.4-1-6.1-2.9-8.1c-1.9-2-4.4-3-7.4-3c-3,0-5.5,1-7.4,3c-1.9,2-2.9,4.7-2.9,8.1c0,3.4,1,6.1,2.9,8.1c1.9,2,4.4,3,7.4,3
				C462.3,180.6,464.7,179.5,466.7,177.5z"/>
			<path d="M515.1,187.6c-1.1,0.8-2.6,1.5-4.2,1.9c-1.7,0.4-3.4,0.6-5.3,0.6c-4.8,0-8.5-1.2-11.1-3.7s-3.9-6-3.9-10.8v-16.5h-6.2v-9
				h6.2v-9.8h11.7v9.8h10v9h-10v16.4c0,1.7,0.4,3,1.3,3.9c0.9,0.9,2.1,1.4,3.7,1.4c1.8,0,3.4-0.5,4.7-1.5L515.1,187.6z"/>
			<path d="M560.8,149.3L542.7,192c-1.8,4.6-4.1,7.9-6.8,9.8c-2.7,1.9-6,2.8-9.8,2.8c-2.1,0-4.2-0.3-6.2-1c-2-0.6-3.7-1.5-5-2.7
				l4.3-8.3c0.9,0.8,1.9,1.4,3.1,1.9c1.2,0.4,2.3,0.7,3.5,0.7c1.6,0,2.9-0.4,3.9-1.2c1-0.8,1.9-2.1,2.7-3.8l0.2-0.4l-17.4-40.5h12
				l11.3,27.3l11.4-27.3H560.8z"/>
			<path d="M599.6,151.3c3.1,1.7,5.5,4.1,7.2,7.3c1.7,3.1,2.6,6.7,2.6,10.9c0,4.1-0.9,7.8-2.6,10.9c-1.7,3.1-4.1,5.5-7.2,7.3
				c-3.1,1.7-6.5,2.6-10.2,2.6c-5.1,0-9.2-1.6-12.1-4.9V204h-11.7v-54.7h11.1v4.6c2.9-3.5,7.1-5.2,12.6-5.2
				C593.1,148.7,596.5,149.6,599.6,151.3z M594.7,177.5c1.9-2,2.9-4.7,2.9-8.1c0-3.4-1-6.1-2.9-8.1c-1.9-2-4.4-3-7.4-3
				c-3,0-5.4,1-7.4,3c-1.9,2-2.9,4.7-2.9,8.1c0,3.4,1,6.1,2.9,8.1c1.9,2,4.4,3,7.4,3C590.4,180.6,592.8,179.5,594.7,177.5z"/>
			<path d="M617.8,141.8c-1.3-1.2-2-2.8-2-4.6c0-1.8,0.7-3.4,2-4.6c1.3-1.2,3.1-1.9,5.2-1.9c2.1,0,3.9,0.6,5.2,1.8
				c1.3,1.2,2,2.7,2,4.5c0,1.9-0.7,3.6-2,4.8c-1.3,1.3-3.1,1.9-5.2,1.9C620.9,143.7,619.1,143.1,617.8,141.8z M617.2,149.3h11.7
				v40.2h-11.7V149.3z"/>
			<path d="M676.2,153.2c3.1,3,4.6,7.4,4.6,13.3v23h-11.7v-21.2c0-3.2-0.7-5.6-2.1-7.1c-1.4-1.6-3.4-2.4-6.1-2.4
				c-2.9,0-5.3,0.9-7,2.7c-1.7,1.8-2.6,4.5-2.6,8.1v19.9h-11.7v-40.2h11.1v4.7c1.5-1.7,3.5-3,5.8-3.9c2.3-0.9,4.8-1.4,7.6-1.4
				C669.1,148.7,673.2,150.2,676.2,153.2z"/>
			<path d="M733.3,149.3v33.5c0,7.4-1.9,12.9-5.8,16.4c-3.8,3.6-9.4,5.4-16.8,5.4c-3.9,0-7.6-0.5-11.1-1.4c-3.5-0.9-6.4-2.3-8.7-4.1
				l4.6-8.4c1.7,1.4,3.8,2.5,6.4,3.3s5.2,1.2,7.8,1.2c4,0,7-0.9,8.9-2.7c1.9-1.8,2.9-4.6,2.9-8.3v-1.7c-3,3.3-7.3,5-12.7,5
				c-3.7,0-7.1-0.8-10.1-2.4c-3.1-1.6-5.5-3.9-7.3-6.8c-1.8-2.9-2.7-6.3-2.7-10.2c0-3.8,0.9-7.2,2.7-10.2c1.8-2.9,4.2-5.2,7.3-6.8
				c3.1-1.6,6.4-2.4,10.1-2.4c5.8,0,10.3,1.9,13.3,5.8v-5.2H733.3z M718.8,175.3c2-1.8,3-4.2,3-7.1c0-2.9-1-5.3-3-7.1
				c-2-1.8-4.5-2.7-7.6-2.7c-3.1,0-5.6,0.9-7.6,2.7c-2,1.8-3,4.2-3,7.1c0,2.9,1,5.3,3,7.1c2,1.8,4.5,2.7,7.6,2.7
				C714.3,178,716.9,177.1,718.8,175.3z"/>
		</g>
	</g>
</g>
</svg>
